<svg xmlns="http://www.w3.org/2000/svg" viewBox="0 0 600 400">
  <rect width="600" height="400" fill="#1d3557"/>
  <rect x="40" y="60" width="520" height="280" rx="16" fill="#e63946" opacity=".1"/>
  <!-- Students silhouette group -->
  <g fill="#e63946" opacity=".85">
    <ellipse cx="150" cy="320" rx="50" ry="8" fill="#000" opacity=".15"/>
    <circle cx="150" cy="220" r="24"/>
    <rect x="127" y="244" width="46" height="60" rx="10"/>
    <rect x="120" y="260" width="18" height="50" rx="6"/>
    <rect x="162" y="260" width="18" height="50" rx="6"/>
  </g>
  <g fill="#f4a261" opacity=".85">
    <ellipse cx="300" cy="320" rx="50" ry="8" fill="#000" opacity=".15"/>
    <circle cx="300" cy="210" r="28"/>
    <rect x="272" y="238" width="56" height="68" rx="12"/>
    <rect x="262" y="256" width="20" height="58" rx="7"/>
    <rect x="318" y="256" width="20" height="58" rx="7"/>
  </g>
  <g fill="#e63946" opacity=".85">
    <ellipse cx="450" cy="320" rx="50" ry="8" fill="#000" opacity=".15"/>
    <circle cx="450" cy="220" r="24"/>
    <rect x="427" y="244" width="46" height="60" rx="10"/>
    <rect x="420" y="260" width="18" height="50" rx="6"/>
    <rect x="462" y="260" width="18" height="50" rx="6"/>
  </g>
  <!-- Books -->
  <rect x="120" y="300" width="30" height="20" rx="3" fill="#f4a261"/>
  <rect x="280" y="306" width="36" height="14" rx="3" fill="#a8dadc"/>
  <rect x="432" y="300" width="30" height="20" rx="3" fill="#f4a261"/>
  <!-- Stars -->
  <text x="70" y="110" fill="#f4a261" font-size="22">★</text>
  <text x="490" y="100" fill="#f4a261" font-size="18">★</text>
  <text x="530" y="160" fill="white" font-size="14" opacity=".5">★</text>
  <text x="40" y="200" fill="white" font-size="12" opacity=".4">★</text>
</svg>
